PathFileType	4	(x/y/z)	S01_PSF_T06.trc
DataRate	CameraRate	NumFrames	NumMarkers	Units	OrigDataRate	OrigDataStartFrame	OrigNumFrames
240	240	7	51	mm	240	177	471
Frame#	Time	Sternum			R.Acromium			L.Acromium			Top.Head			R.ASIS			L.ASIS			R.PSIS			L.PSIS			R.Great.Tro			L.Great.Tro			R.Iliac.Crest			L.Iliac.Crest			V.Sacral			R.Thigh.Upper.Post			R.Thigh.Lower.Ant			R.Thigh.Lower.Post			R.Thigh.Upper.Ant			R.Knee.Lat			R.Knee.Med			R.Shank.Upper.Post			R.Shank.Lower.Ant			R.Shank.Lower.Post			R.Shank.Upper.Ant			R.Ankle.Lat			R.Ankle.Med			R.Heel.Upper			R.Heel.Med			R.Heel.Lat			R.Toe.Lat			R.Toe.Med			R.Toe.Tip			L.Thigh.Upper.Post			L.Thigh.Lower.Ant			L.Thigh.Lower.Post			L.Thigh.Upper.Ant			L.Knee.Lat			L.Knee.Med			L.Shank.Upper.Post			L.Shank.Lower.Ant			L.Shank.Lower.Post			L.Shank.Upper.Ant			L.Ankle.Lat			L.Ankle.Med			L.Heel.Upper			L.Heel.Med			L.Heel.Lat			L.Toe.Lat			L.Toe.Med			L.Toe.Tip			Cervical.Spine			Back			
		X1	Y1	Z1	X2	Y2	Z2	X3	Y3	Z3	X4	Y4	Z4	X5	Y5	Z5	X6	Y6	Z6	X7	Y7	Z7	X8	Y8	Z8	X9	Y9	Z9	X10	Y10	Z10	X11	Y11	Z11	X12	Y12	Z12	X13	Y13	Z13	X14	Y14	Z14	X15	Y15	Z15	X16	Y16	Z16	X17	Y17	Z17	X18	Y18	Z18	X19	Y19	Z19	X20	Y20	Z20	X21	Y21	Z21	X22	Y22	Z22	X23	Y23	Z23	X24	Y24	Z24	X25	Y25	Z25	X26	Y26	Z26	X27	Y27	Z27	X28	Y28	Z28	X29	Y29	Z29	X30	Y30	Z30	X31	Y31	Z31	X32	Y32	Z32	X33	Y33	Z33	X34	Y34	Z34	X35	Y35	Z35	X36	Y36	Z36	X37	Y37	Z37	X38	Y38	Z38	X39	Y39	Z39	X40	Y40	Z40	X41	Y41	Z41	X42	Y42	Z42	X43	Y43	Z43	X44	Y44	Z44	X45	Y45	Z45	X46	Y46	Z46	X47	Y47	Z47	X48	Y48	Z48	X49	Y49	Z49	X50	Y50	Z50	X51	Y51	Z51	

177	0.73333	-329.37	1284.8	254.54	-411.33	1531.5	452.29	-467.18	1562.2	128.83	-375.84	1856.7	297.26	-367.64	1035.8	409.77	-389.61	1042	146.03	-613.3	1077	337.25	-623.24	1074.1	234.7	-440.19	979.58	493.02	-494.2	990.28	73.202	-442.64	1131.8	485.64	-505.45	1126.2	84.238	-631.6	1039.4	285	-429.59	668.36	454.05	-355.16	604.84	418.93	-421.16	583.13	427.29	-360.75	692.28	446.12	-396.56	522.02	416.95	-398.03	532.63	274.1	-471.67	370.04	431.84	-424.91	283.07	382	-485.86	301.68	417.54	-413.75	352.83	403.32	-519.3	105.79	369.43	-487.25	112.11	276.49	-592.13	78.826	308.35	-576.41	48.978	279.69	-582.31	48.62	344.14	-393.5	35.65	407.36	-358.13	39.845	282.98	-295.76	54.046	339.69	-423.86	708.74	73.187	-323.35	669.34	52.694	-382.66	627.74	83.143	-371.84	750.59	45.316	-322.21	566.39	59.367	-262.57	566.8	199.77	-431.32	482.72	62.428	-423.92	373.13	79.044	-471.3	416.67	70.595	-384.47	437.96	65.919	-593.1	242.9	118.77	-544.65	235.38	208.06	-658.31	255.29	181.68	-656.05	228.93	214.93	-673.36	229.96	155.48	-520.97	103.67	83.79	-468.01	97.03	195.77	-422.2	72.79	131.66	-517.75	1607.7	308.29	-622.04	1301.1	321.14
178	0.7375	-324.22	1285.5	254.56	-405.76	1532.3	452.25	-462.18	1562.8	128.88	-370.45	1857.3	296.86	-362.77	1036.3	410.13	-384.37	1042.9	146.38	-608.28	1077.7	336.99	-618.04	1074.8	234.4	-435.7	979.94	493.02	-488.63	991.36	73.113	-437.91	1132.4	485.8	-500.36	1127	84.288	-626.48	1040.1	284.68	-427.49	668.71	454.04	-353.5	604.55	419.1	-419.72	583.39	427.38	-358.41	692.07	446.2	-395.65	522.03	417.07	-396.78	532.58	274.17	-471.21	370.24	431.88	-424.57	283.16	382.13	-485.56	301.91	417.54	-413.28	352.9	403.46	-519.18	105.97	369.4	-487.13	112.26	276.51	-591.98	79.091	308.32	-576.37	49.201	279.62	-582.23	48.867	344.09	-393.49	35.637	407.38	-358.07	39.863	283	-295.71	53.926	339.73	-416.66	710.11	72.774	-315.62	671.32	53.122	-375.08	629.31	82.928	-364.6	752.2	45.361	-314.1	568.03	59.839	-255.35	568.96	200.2	-421.96	481.68	62.522	-412.2	372.31	79.197	-460.43	414.76	70.562	-374.13	438.01	66.175	-578.48	238.24	118.55	-529.9	231.8	207.91	-644.16	248.91	181.4	-641.13	222.49	214.58	-658.41	223.27	155.09	-502.69	100.99	83.392	-449.61	95.601	195.45	-403.2	72.623	131.32	-512.37	1608.3	308.42	-616.71	1301.9	321.6
179	0.74167	-319.07	1286.2	254.58	-400.19	1533.1	452.21	-457.15	1563.4	128.92	-365.07	1857.9	296.46	-357.92	1036.8	410.49	-379.11	1043.8	146.72	-603.25	1078.3	336.72	-612.84	1075.5	234.07	-431.21	980.28	493.02	-483.07	992.37	73.017	-433.2	1132.9	485.95	-495.27	1127.6	84.312	-621.35	1040.7	284.34	-425.4	669.04	454.03	-351.85	604.26	419.26	-418.28	583.65	427.47	-356.08	691.86	446.27	-394.74	522.05	417.18	-395.54	532.52	274.24	-470.76	370.45	431.93	-424.23	283.25	382.25	-485.26	302.14	417.53	-412.81	352.97	403.6	-519.06	106.14	369.37	-487.01	112.43	276.53	-591.82	79.356	308.28	-576.32	49.421	279.55	-582.15	49.115	344.04	-393.47	35.623	407.39	-358.02	39.882	283.02	-295.66	53.806	339.77	-409.55	711.42	72.419	-308.03	673.19	53.571	-367.62	630.79	82.766	-357.45	753.73	45.436	-306.14	569.58	60.323	-248.27	571	200.64	-412.65	480.52	62.617	-400.46	371.41	79.346	-449.56	412.75	70.529	-363.85	437.97	66.43	-563.72	233.51	118.31	-515.03	228.14	207.73	-629.82	242.4	181.11	-625.99	215.95	214.22	-643.23	216.48	154.68	-484.29	98.354	82.944	-431.09	94.2	195.07	-384.12	72.526	130.9	-506.98	1609	308.53	-611.38	1302.6	322.03
180	0.74583	-313.9	1286.8	254.6	-394.64	1533.9	452.17	-452.11	1563.8	128.95	-359.71	1858.4	296.05	-353.07	1037.2	410.84	-373.85	1044.6	147.04	-598.23	1078.9	336.43	-607.65	1076.1	233.74	-426.73	980.57	493.01	-477.51	993.31	72.915	-428.51	1133.4	486.09	-490.16	1128.2	84.314	-616.23	1041.3	283.98	-423.3	669.37	454.01	-350.19	603.97	419.42	-416.83	583.9	427.54	-353.75	691.63	446.34	-393.83	522.06	417.29	-394.29	532.45	274.3	-470.31	370.65	431.96	-423.89	283.34	382.37	-484.95	302.38	417.52	-412.35	353.03	403.73	-518.95	106.32	369.34	-486.88	112.59	276.55	-591.67	79.621	308.24	-576.27	49.639	279.47	-582.07	49.361	343.98	-393.45	35.61	407.4	-357.96	39.901	283.04	-295.62	53.684	339.8	-402.52	712.65	72.125	-300.56	674.96	54.043	-360.27	632.19	82.66	-350.4	755.16	45.544	-298.32	571.04	60.821	-241.33	572.91	201.1	-403.39	479.24	62.714	-388.72	370.46	79.492	-438.7	410.63	70.496	-353.63	437.85	66.687	-548.81	228.72	118.05	-500.04	224.41	207.53	-615.29	235.8	180.8	-610.65	209.32	213.84	-627.83	209.6	154.24	-465.76	95.762	82.447	-412.46	92.838	194.63	-364.98	72.51	130.43	-501.6	1609.5	308.62	-606.05	1303.2	322.43
181	0.75	-308.73	1287.4	254.62	-389.11	1534.5	452.12	-447.04	1564.3	128.97	-354.36	1858.9	295.63	-348.22	1037.6	411.19	-368.59	1045.4	147.35	-593.2	1079.5	336.13	-602.46	1076.6	233.39	-422.25	980.83	492.99	-471.96	994.18	72.808	-423.83	1133.8	486.22	-485.04	1128.8	84.297	-611.1	1041.8	283.61	-421.2	669.69	453.98	-348.54	603.69	419.57	-415.37	584.15	427.61	-351.43	691.41	446.39	-392.92	522.06	417.39	-393.06	532.38	274.35	-469.86	370.85	432	-423.54	283.42	382.49	-484.64	302.61	417.5	-411.88	353.09	403.86	-518.83	106.5	369.3	-486.73	112.75	276.57	-591.52	79.885	308.19	-576.22	49.854	279.39	-581.98	49.605	343.92	-393.44	35.595	407.41	-357.91	39.92	283.06	-295.57	53.563	339.84	-395.59	713.8	71.896	-293.24	676.61	54.54	-353.05	633.5	82.614	-343.45	756.48	45.686	-290.66	572.4	61.335	-234.52	574.71	201.57	-394.18	477.84	62.814	-376.98	369.44	79.632	-427.85	408.42	70.462	-343.47	437.66	66.943	-533.76	223.88	117.77	-484.92	220.61	207.29	-600.56	229.11	180.48	-595.08	202.62	213.45	-612.2	202.67	153.78	-447.13	93.231	81.9	-393.74	91.524	194.14	-345.77	72.583	129.89	-496.21	1610.1	308.7	-600.72	1303.8	322.8
182	0.75417	-303.55	1287.9	254.65	-383.58	1535.2	452.06	-441.96	1564.7	128.98	-349.02	1859.4	295.2	-343.38	1037.9	411.51	-363.32	1046.1	147.63	-588.17	1080	335.81	-597.28	1077.1	233.04	-417.77	981.06	492.97	-466.42	994.98	72.697	-419.16	1134.2	486.34	-479.91	1129.2	84.262	-605.97	1042.2	283.22	-419.1	670	453.95	-346.88	603.41	419.71	-413.89	584.4	427.68	-349.1	691.18	446.44	-392.01	522.06	417.49	-391.83	532.29	274.4	-469.4	371.05	432.03	-423.2	283.51	382.6	-484.33	302.84	417.48	-411.41	353.15	403.98	-518.71	106.67	369.26	-486.58	112.92	276.58	-591.37	80.146	308.14	-576.15	50.066	279.32	-581.9	49.846	343.86	-393.42	35.58	407.42	-357.86	39.939	283.08	-295.53	53.442	339.88	-388.77	714.85	71.735	-286.06	678.13	55.062	-345.96	634.7	82.632	-336.6	757.7	45.864	-283.15	573.64	61.867	-227.83	576.37	202.05	-385	476.32	62.918	-365.24	368.37	79.765	-416.99	406.12	70.428	-333.36	437.39	67.201	-518.57	219	117.45	-469.68	216.77	207.02	-585.63	222.34	180.13	-579.31	195.87	213.02	-596.34	195.68	153.28	-428.39	90.773	81.306	-374.93	90.267	193.59	-326.52	72.752	129.29	-490.82	1610.5	308.77	-595.38	1304.3	323.14
183	0.75833	-298.37	1288.3	254.67	-378.06	1535.7	452	-436.85	1565	128.98	-343.68	1859.7	294.77	-338.55	1038.1	411.83	-358.06	1046.7	147.88	-583.15	1080.5	335.49	-592.1	1077.5	232.69	-413.3	981.25	492.94	-460.88	995.7	72.583	-414.5	1134.5	486.44	-474.75	1129.7	84.212	-600.84	1042.7	282.83	-416.98	670.3	453.91	-345.22	603.13	419.84	-412.41	584.63	427.74	-346.78	690.94	446.47	-391.1	522.05	417.58	-390.6	532.2	274.44	-468.94	371.24	432.06	-422.85	283.58	382.72	-484.01	303.06	417.45	-410.94	353.2	404.1	-518.6	106.84	369.22	-486.41	113.08	276.59	-591.23	80.403	308.09	-576.07	50.275	279.25	-581.82	50.083	343.8	-393.4	35.564	407.42	-357.82	39.958	283.09	-295.49	53.323	339.91	-382.06	715.82	71.643	-279.03	679.51	55.612	-339.01	635.8	82.717	-329.87	758.8	46.078	-275.79	574.78	62.421	-221.27	577.9	202.55	-375.87	474.7	63.029	-353.5	367.26	79.891	-406.13	403.74	70.395	-323.31	437.05	67.46	-503.23	214.1	117.11	-454.31	212.91	206.71	-570.5	215.53	179.74	-563.32	189.09	212.57	-580.25	188.68	152.74	-409.54	88.401	80.666	-356.06	89.08	192.99	-307.23	73.027	128.65	-485.43	1610.9	308.82	-590.04	1304.8	323.44
